<svg width="245" height="57" viewBox="0 0 245 57" fill="none" xmlns="http://www.w3.org/2000/svg">
<path d="M16.9517 12.4545L26.0199 38.1676H26.3778L35.446 12.4545H39.3239L28.108 43H24.2898L13.0739 12.4545H16.9517ZM43.6044 43V20.0909H47.1243V43H43.6044ZM45.3942 16.2727C44.7081 16.2727 44.1165 16.0391 43.6193 15.5717C43.1321 15.1044 42.8885 14.5426 42.8885 13.8864C42.8885 13.2301 43.1321 12.6683 43.6193 12.201C44.1165 11.7337 44.7081 11.5 45.3942 11.5C46.0803 11.5 46.6669 11.7337 47.1541 12.201C47.6513 12.6683 47.8999 13.2301 47.8999 13.8864C47.8999 14.5426 47.6513 15.1044 47.1541 15.5717C46.6669 16.0391 46.0803 16.2727 45.3942 16.2727ZM63.5343 20.0909V23.0739H51.6621V20.0909H63.5343ZM55.1223 14.6023H58.6422V36.4375C58.6422 37.4318 58.7864 38.1776 59.0748 38.6747C59.373 39.1619 59.7509 39.4901 60.2083 39.6591C60.6756 39.8182 61.1678 39.8977 61.6848 39.8977C62.0726 39.8977 62.3908 39.8778 62.6394 39.8381C62.888 39.7884 63.0868 39.7486 63.236 39.7188L63.9519 42.8807C63.7132 42.9702 63.3801 43.0597 62.9526 43.1491C62.525 43.2486 61.9831 43.2983 61.3269 43.2983C60.3326 43.2983 59.3581 43.0845 58.4036 42.657C57.459 42.2294 56.6735 41.5781 56.0471 40.7031C55.4306 39.8281 55.1223 38.7244 55.1223 37.392V14.6023ZM78.188 43.4773C75.9806 43.4773 74.0765 42.9901 72.4757 42.0156C70.8848 41.0312 69.6568 39.6591 68.7917 37.8991C67.9366 36.1293 67.5091 34.071 67.5091 31.7244C67.5091 29.3778 67.9366 27.3097 68.7917 25.5199C69.6568 23.7202 70.8599 22.3182 72.4011 21.3139C73.9522 20.2997 75.7619 19.7926 77.8301 19.7926C79.0233 19.7926 80.2015 19.9915 81.3649 20.3892C82.5282 20.7869 83.5872 21.4332 84.5417 22.3281C85.4963 23.2131 86.2569 24.3864 86.8237 25.848C87.3904 27.3097 87.6738 29.1094 87.6738 31.2472V32.7386H70.0147V29.696H84.0943C84.0943 28.4034 83.8358 27.25 83.3187 26.2358C82.8116 25.2216 82.0858 24.4212 81.1412 23.8345C80.2065 23.2479 79.1028 22.9545 77.8301 22.9545C76.4281 22.9545 75.215 23.3026 74.1909 23.9986C73.1767 24.6847 72.3961 25.5795 71.8493 26.6832C71.3024 27.7869 71.0289 28.9702 71.0289 30.233V32.2614C71.0289 33.9915 71.3272 35.4581 71.9238 36.6612C72.5304 37.8544 73.3706 38.7642 74.4444 39.3906C75.5183 40.0071 76.7662 40.3153 78.188 40.3153C79.1127 40.3153 79.948 40.1861 80.6937 39.9276C81.4494 39.6591 82.1007 39.2614 82.6476 38.7344C83.1944 38.1974 83.617 37.5312 83.9153 36.7358L87.3159 37.6903C86.9579 38.8438 86.3564 39.858 85.5112 40.733C84.666 41.598 83.622 42.2741 82.3791 42.7614C81.1362 43.2386 79.7392 43.4773 78.188 43.4773Z" fill="#120000"/>
<path d="M93.5055 43V12.4545H103.827C106.213 12.4545 108.172 12.8622 109.703 13.6776C111.234 14.483 112.368 15.5916 113.104 17.0036C113.839 18.4155 114.207 20.0213 114.207 21.821C114.207 23.6207 113.839 25.2166 113.104 26.6087C112.368 28.0007 111.239 29.0945 109.718 29.8899C108.197 30.6754 106.253 31.0682 103.886 31.0682H95.5339V27.7273H103.767C105.398 27.7273 106.71 27.4886 107.704 27.0114C108.709 26.5341 109.434 25.858 109.882 24.983C110.339 24.098 110.568 23.044 110.568 21.821C110.568 20.598 110.339 19.5291 109.882 18.6143C109.425 17.6996 108.694 16.9936 107.689 16.4964C106.685 15.9893 105.358 15.7358 103.707 15.7358H97.2044V43H93.5055ZM107.883 29.2784L115.4 43H111.105L103.707 29.2784H107.883ZM146.143 27.7273C146.143 30.9489 145.562 33.733 144.398 36.0795C143.235 38.4261 141.639 40.2358 139.611 41.5085C137.582 42.7812 135.266 43.4176 132.661 43.4176C130.055 43.4176 127.739 42.7812 125.71 41.5085C123.682 40.2358 122.086 38.4261 120.923 36.0795C119.759 33.733 119.178 30.9489 119.178 27.7273C119.178 24.5057 119.759 21.7216 120.923 19.375C122.086 17.0284 123.682 15.2187 125.71 13.946C127.739 12.6733 130.055 12.0369 132.661 12.0369C135.266 12.0369 137.582 12.6733 139.611 13.946C141.639 15.2187 143.235 17.0284 144.398 19.375C145.562 21.7216 146.143 24.5057 146.143 27.7273ZM142.564 27.7273C142.564 25.0824 142.121 22.8501 141.237 21.0305C140.362 19.2109 139.173 17.8338 137.672 16.8991C136.18 15.9645 134.51 15.4972 132.661 15.4972C130.811 15.4972 129.136 15.9645 127.634 16.8991C126.143 17.8338 124.955 19.2109 124.07 21.0305C123.195 22.8501 122.757 25.0824 122.757 27.7273C122.757 30.3722 123.195 32.6044 124.07 34.424C124.955 36.2436 126.143 37.6207 127.634 38.5554C129.136 39.4901 130.811 39.9574 132.661 39.9574C134.51 39.9574 136.18 39.4901 137.672 38.5554C139.173 37.6207 140.362 36.2436 141.237 34.424C142.121 32.6044 142.564 30.3722 142.564 27.7273ZM152.18 43H148.302L159.518 12.4545H163.336L174.552 43H170.675L161.547 17.2869H161.308L152.18 43ZM153.612 31.0682H169.243V34.3494H153.612V31.0682ZM188.736 43H179.31V12.4545H189.154C192.117 12.4545 194.653 13.0661 196.76 14.2891C198.868 15.5021 200.484 17.2472 201.608 19.5241C202.731 21.7912 203.293 24.5057 203.293 27.6676C203.293 30.8494 202.726 33.5888 201.593 35.8857C200.459 38.1726 198.809 39.9325 196.641 41.1655C194.474 42.3885 191.839 43 188.736 43ZM183.009 39.7188H188.498C191.023 39.7188 193.116 39.2315 194.777 38.2571C196.437 37.2827 197.675 35.8956 198.491 34.0959C199.306 32.2962 199.714 30.1534 199.714 27.6676C199.714 25.2017 199.311 23.0788 198.506 21.299C197.7 19.5092 196.497 18.1371 194.896 17.1825C193.295 16.218 191.302 15.7358 188.915 15.7358H183.009V39.7188ZM226.202 20.0909C226.023 18.5795 225.297 17.4062 224.025 16.571C222.752 15.7358 221.191 15.3182 219.341 15.3182C217.989 15.3182 216.806 15.5369 215.792 15.9744C214.787 16.4119 214.002 17.0135 213.435 17.7791C212.878 18.5447 212.6 19.4148 212.6 20.3892C212.6 21.2045 212.794 21.9055 213.182 22.4922C213.579 23.0689 214.086 23.5511 214.703 23.9389C215.319 24.3168 215.966 24.63 216.642 24.8786C217.318 25.1172 217.939 25.3111 218.506 25.4602L221.608 26.2955C222.404 26.5043 223.289 26.7926 224.263 27.1605C225.248 27.5284 226.187 28.0305 227.082 28.6669C227.987 29.2933 228.733 30.0987 229.319 31.0831C229.906 32.0675 230.199 33.2756 230.199 34.7074C230.199 36.358 229.767 37.8494 228.902 39.1818C228.047 40.5142 226.794 41.5732 225.143 42.3587C223.503 43.1442 221.509 43.5369 219.162 43.5369C216.975 43.5369 215.081 43.1839 213.48 42.478C211.889 41.772 210.636 40.7876 209.721 39.5249C208.817 38.2621 208.305 36.7955 208.185 35.125H212.003C212.103 36.2784 212.491 37.233 213.167 37.9886C213.853 38.7344 214.718 39.2912 215.762 39.6591C216.816 40.017 217.949 40.196 219.162 40.196C220.574 40.196 221.842 39.9673 222.966 39.5099C224.089 39.0426 224.979 38.3963 225.635 37.571C226.292 36.7358 226.62 35.7614 226.62 34.6477C226.62 33.6335 226.336 32.8082 225.77 32.1719C225.203 31.5355 224.457 31.0185 223.532 30.6207C222.608 30.223 221.608 29.875 220.535 29.5767L216.776 28.5028C214.39 27.8168 212.501 26.8374 211.108 25.5646C209.716 24.2919 209.02 22.6264 209.02 20.5682C209.02 18.858 209.483 17.3665 210.407 16.0938C211.342 14.8111 212.595 13.8168 214.166 13.1108C215.747 12.3949 217.512 12.0369 219.461 12.0369C221.43 12.0369 223.18 12.3899 224.711 13.0959C226.242 13.7919 227.455 14.7464 228.35 15.9595C229.255 17.1726 229.732 18.5497 229.782 20.0909H226.202Z" fill="#E94444"/>
</svg>
